<svg width="28" height="22" viewBox="0 0 28 22" fill="none" xmlns="http://www.w3.org/2000/svg">
<path d="M2.33333 0C1.05076 0 0 1.10038 0 2.44365V19.5492C0 20.8924 1.05076 21.9929 2.33333 21.9929H3.99447C4.05336 22.0024 4.1133 22.0024 4.1722 21.9929H23.8278C23.8867 22.0024 23.9466 22.0024 24.0055 21.9929H25.6667C26.9492 21.9929 28 20.8924 28 19.5492V2.44365C28 1.10038 26.9492 0 25.6667 0H23.944H4.08333H2.33333ZM2.33333 1.22183H3.87598L13.6286 9.63381C13.7331 9.72419 13.8644 9.77363 14 9.77363C14.1356 9.77363 14.2669 9.72419 14.3714 9.63381L24.124 1.22183H25.6667C26.3231 1.22183 26.8333 1.75613 26.8333 2.44365V19.5492C26.8333 20.2366 26.3231 20.771 25.6667 20.771H24.5V4.8873C24.5002 4.77131 24.4689 4.65765 24.4098 4.5596C24.3506 4.46155 24.266 4.38316 24.1659 4.3336C24.0657 4.28404 23.9542 4.26536 23.8443 4.27974C23.7344 4.29412 23.6307 4.34097 23.5452 4.4148L14 12.6478L4.45475 4.4148C4.34822 4.32334 4.21423 4.27431 4.0765 4.27639C3.92298 4.27829 3.77637 4.34349 3.66845 4.45785C3.56053 4.57221 3.5 4.72652 3.5 4.8873V20.771H2.33333C1.67691 20.771 1.16667 20.2366 1.16667 19.5492V2.44365C1.16667 1.75613 1.67691 1.22183 2.33333 1.22183ZM5.71029 1.22183H22.2897L14 8.37142L5.71029 1.22183ZM4.66667 6.18072L13.6286 13.9102C13.7331 14.0006 13.8644 14.05 14 14.05C14.1356 14.05 14.2669 14.0006 14.3714 13.9102L23.3333 6.18072V20.771H4.66667V6.18072Z" fill="#EFEFEF"/>
</svg>
