<?xml version="1.0" standalone="no"?>
<!DOCTYPE svg PUBLIC "-//W3C//DTD SVG 20010904//EN"
 "http://www.w3.org/TR/2001/REC-SVG-20010904/DTD/svg10.dtd">
<svg version="1.0" xmlns="http://www.w3.org/2000/svg"
 width="116.000000pt" height="116.000000pt" viewBox="0 0 116.000000 116.000000"
 preserveAspectRatio="xMidYMid meet">
<metadata>
Created by potrace 1.14, written by Peter Selinger 2001-2017
</metadata>
<g transform="translate(0.000000,116.000000) scale(0.100000,-0.100000)"
fill="#000000" stroke="none">
<path d="M540 1098 c-14 -11 -48 -41 -76 -66 -27 -26 -99 -92 -159 -147 -60
-55 -139 -129 -177 -164 -37 -35 -79 -73 -93 -85 -29 -25 -34 -65 -7 -67 88
-7 86 -8 174 76 125 118 340 319 361 338 23 20 12 28 157 -109 41 -39 104 -98
140 -131 36 -33 92 -86 125 -117 33 -30 65 -56 70 -57 67 -8 105 1 105 25 0 8
-38 49 -85 93 l-85 78 0 133 c0 72 -3 133 -7 133 -28 5 -153 5 -155 0 -1 -3
-2 -26 -3 -51 -1 -25 -4 -47 -7 -50 -4 -3 -37 24 -75 59 -37 35 -82 77 -100
94 -39 36 -71 41 -103 15z"/>
<path d="M499 864 c-46 -44 -113 -106 -149 -140 -36 -33 -89 -83 -119 -111
l-54 -51 0 -205 c-1 -190 -2 -206 -19 -210 -14 -4 -18 -15 -18 -45 0 -78 -36
-72 436 -72 393 0 424 1 432 17 12 24 6 97 -7 101 -7 2 -11 72 -11 209 l0 206
-29 26 c-16 14 -84 78 -151 141 -68 63 -128 120 -135 125 -6 6 -30 27 -52 49
l-41 38 -83 -78z m61 -265 c11 -6 9 -8 -11 -9 -37 0 -89 -20 -89 -33 0 -7 9
-23 19 -36 18 -24 18 -25 -7 -48 -28 -25 -34 -27 -47 -14 -13 12 -55 -5 -55
-22 0 -7 -11 -24 -25 -37 l-25 -23 -37 36 -36 37 23 25 c13 14 30 27 39 30 9
3 23 18 33 34 9 16 35 43 57 59 38 28 43 29 93 20 29 -5 60 -14 68 -19z m185
4 c-4 -10 -10 -26 -12 -35 -6 -21 -19 -22 -52 -4 -25 14 -24 15 27 42 36 19
46 18 37 -3z m119 -57 c16 -64 -50 -146 -116 -146 -16 0 -38 -4 -48 -10 -23
-13 -40 -6 -63 26 -13 17 -16 29 -9 37 19 23 17 56 -3 71 -19 14 -19 15 -2 22
11 4 45 -4 85 -20 88 -34 100 -33 118 9 17 41 29 45 38 11z m-217 -204 c168
-169 157 -154 134 -180 -10 -12 -23 -22 -28 -22 -7 0 -209 197 -271 265 -5 5
31 54 40 55 4 0 60 -53 125 -118z m-143 -143 c-58 -59 -88 -71 -112 -47 -25
25 -12 55 49 113 l62 59 29 -33 30 -33 -58 -59z"/>
<path d="M682 485 c-7 -15 -8 -25 -2 -25 13 0 32 38 21 44 -4 3 -13 -6 -19
-19z"/>
<path d="M710 480 c-6 -12 -9 -24 -7 -27 3 -2 11 5 17 17 6 12 9 24 7 27 -3 2
-11 -5 -17 -17z"/>
<path d="M734 474 c-4 -10 -9 -22 -11 -26 -2 -5 0 -8 6 -8 11 0 26 39 17 47
-3 3 -9 -3 -12 -13z"/>
<path d="M411 206 c-14 -16 -4 -46 15 -46 20 0 36 34 22 48 -15 15 -23 15 -37
-2z"/>
</g>
</svg>
